<svg xmlns="http://www.w3.org/2000/svg" fill-rule="evenodd" stroke-linejoin="round" stroke-miterlimit="2" clip-rule="evenodd" viewBox="0 0 640 200"><path fill-rule="nonzero" d="M47.574 36.893l5.93-8.079c-1.817-3.43-1.525-7.602.788-10.752 1.614-2.199 4.039-3.62 6.661-4.022 1.136-.174 2.308-.157 3.468.07.232.045.424.205.51.425.086.22.053.469-.087.659l-3.719 5.067 1.792 3.193 3.584.753 3.719-5.067c.14-.19.368-.296.603-.28.236.016.446.152.559.359 1.867 3.439 1.578 7.697-.735 10.848-2.313 3.151-6.206 4.679-10.023 3.974l-6.237 8.496c2.093 1.653 3.852 3.198 3.966 3.462.194.544-.7 7.422-1.166 8.898-.117.389-1.166 1.127-2.293 1.632l-2.059.933-.273 2.525-.272 2.487-6.076.125c-1.825 1.359-4.078 2.082-6.374 2.018-1.55 2.682-1.838 3.829-1.266 5.162.272.622 2.137 3.653 4.157 6.684l3.692 5.478-.894 3.808c-.505 2.06-.932 4.08-.932 4.508 0 .316.128.529.343.535h.025c.043-.002.089-.012.137-.03.233-.117 6.14-2.798 13.095-6.023l12.629-5.829 4.196.7c7.694 1.321 17.758 3.458 21.372 4.507.11.032.203.049.281.048l.018-.001c.29-.015.361-.307.361-1.096 0-1.982 1.166-9.209 1.982-12.551 1.049-4.08 1.555-5.012 4.43-8.005 3.73-3.924 8.626-11.89 9.908-16.164.428-1.36.778-1.749 2.293-2.448 2.098-.971 6.722-2.176 9.753-2.565.288-.036.614-.054.972-.055h.107c4.247.022 12.591 2.291 13.337 3.747.155.311 1.088 2.331 2.098 4.468 2.254 4.819 6.101 10.647 8.743 13.212 1.088 1.088 2.332 2.564 2.72 3.342 1.127 2.137 2.254 6.994 2.992 12.861.51 4.153.747 5.198 1.191 5.185l.022-.002c.023-.003.046-.007.069-.015 2.759-.855 13.134-2.486 20.634-3.303l4.157-.427 13.29 5.284c7.228 2.869 13.215 5.098 13.512 5.092h.008l.002-.001c.076-.117-.273-2.138-.778-4.547l-.97-4.313 3.262-4.857c1.828-2.681 3.692-5.635 4.199-6.606.631-1.133.836-1.552.707-2.188l-1.501-.848-.081-.106-3.757-4.746h-8.697l-.545-4.896-2.175-1.127-2.215-1.166-.661-4.08c-.388-2.253-.583-4.429-.505-4.896.051-.204.429-.653 1.023-1.239l-.291-.367-.214-3.294 2.408-1.907-6.747-8.525-4.386-1.756-2.391-6.987 3.487-2.76 6.25 3.932.702 4.672 6.749 8.526 2.408-1.906 3.155.965.189.238c3.166-.001 12.007 0 12.864.029l.51.022c.3.016.568.032.81.049.147.01.284.02.41.031.413.034.731.075.989.13.286.061.494.141.665.252.158.102.281.231.407.395l.224.329c.092.138.305.437.612.862.813 1.126 2.293 3.138 3.955 5.374l1.146 1.536 5.011 6.722 2.447 9.598c.263 1.015.521 2.025.773 3.027.461 1.832.91 3.641 1.339 5.412.173.719.344 1.432.512 2.138l.366 1.54c.449 1.919.875 3.779 1.272 5.561.255 1.143.497 2.254.726 3.327.221 1.024.426 2.014.62 2.967l.245 1.203c.284 1.423.536 2.75.752 3.967.018.105.037.209.055.313.126.701.237 1.364.337 1.985l.155 1.018.136.974c.029.203.053.4.077.589.105.88.165 1.605.173 2.155.003.053.003.105.003.155 0 .365.015.703.047.96l.037.241c.026.13.058.213.094.232l.006.003c.002.001.005.002.01.002 0 0 .116 3.808-.428 4.74-1.283 2.371-7.149 15.582-8.821 19.74-1.748 4.507-2.718 7.577-3.147 10.181-.31 1.67.854 1.321-11.502 3.38-13.834 2.331-16.048 2.526-26.811 2.254-5.246-.155-9.948-.35-10.492-.466-.893-.234-1.204.116-3.963 4.935-4.08 7.071-8.277 13.716-10.103 16.048-1.244 1.554-1.516 2.137-1.321 3.108.116.622.311 2.332.466 3.769l.272 2.604-2.254 4.002c-2.875 5.129-6.217 10.297-7.499 11.696l-1.01 1.049s-.583-.078-.661-.156c-.078-.077-2.875-1.282-6.178-2.681-3.303-1.398-6.839-2.914-7.849-3.341l-1.827-.816 3.536-5.946c4.041-6.722 9.637-17.33 9.637-18.224 0-1.088-5.829-3.03-9.093-3.03-.699 0-1.399-.117-1.515-.273-.156-.116 2.215-1.321 5.284-2.642 6.567-2.836 17.564-7.966 20.284-9.442 1.243-.661 2.02-1.399 2.176-2.021.505-1.826.35-13.134-.233-17.563-.622-4.663-1.671-9.054-2.954-11.968l-.777-1.827-7.266 1.321c-15.776 2.837-25.335 5.829-32.912 10.298l-1.554.932-3.536-1.865c-5.984-3.148-18.807-6.917-35.05-10.258-5.945-1.205-5.44-1.399-6.722 2.564-1.088 3.42-1.904 9.792-1.904 14.999 0 4.702.661 12.201 1.204 13.639.234.583 1.632 1.515 4.585 3.031 4.314 2.137 15.893 7.461 19.079 8.743.972.388 2.448 1.01 3.264 1.36l1.516.66-3.458 1.827c-1.905 1.01-4.197 2.331-5.13 2.953-1.437.971-1.632 1.243-1.437 2.098.349 1.477 5.323 10.453 8.742 15.854l3.031 4.741-4.157 1.321c-2.254.738-5.479 1.826-7.15 2.448l-2.992 1.088-1.593-1.555c-.894-.816-3.769-4.08-6.412-7.266-5.323-6.334-5.284-6.178-4.391-10.88l.389-2.215-2.292-3.225c-2.021-2.798-8.782-13.756-11.347-18.419l-.932-1.671-2.138.311c-1.204.156-6.528.272-11.89.272-10.958 0-11.113-.039-24.558-4.08-3.575-1.088-7.149-2.059-7.927-2.176-1.282-.233-1.476-.389-1.709-1.671-.506-2.681-2.526-7.266-5.868-13.25-1.826-3.303-4.468-8.121-5.828-10.686l-2.487-4.663 2.03-14.961c1.606-7.984 4.167-20.154 6.674-29.608l1.71-6.528 4.818-6.49c2.681-3.614 5.246-7.072 5.712-7.771.816-1.166 1.01-1.244 3.653-1.399 1.554-.039 11.808-.068 12.551 0 .907.085 1.567.336 2.355.919v.004zm248.631 51.966v6.702c0 2.521-.067 4.313-.266 6.967h-5.109v-7.565c0-1.659.066-2.787.199-3.583H280.81c.199 1.128.265 2.654.265 3.982v11.546c0 1.858-.066 3.45-.199 4.91 1.327-.132 2.721-.199 4.512-.199h8.162c-1.592 2.323-3.649 3.783-8.228 5.84 2.522 1.99 3.915 3.318 5.773 5.773-8.095-.332-10.484-1.261-13.072-4.844v-15.196c0-3.915.066-5.442.265-7.499-1.526.199-3.052.266-5.109.266h-6.437c-2.588 0-3.65-.067-5.508-.332v10.02c1.726-.265 2.655-.332 4.114-.332h2.854v12.542c-2.92 2.19-6.702 4.446-8.494 5.043l4.313 10.75c1.261-.929 1.261-.929 1.925-1.393 2.919-1.925 4.844-3.385 7.1-5.442 4.446 4.911 8.892 6.171 22.296 6.171 7.631 0 21.633-.199 26.61-.398.597-4.512 1.128-6.835 2.455-10.816-7.631.995-16.789 1.46-28.733 1.46 4.645-3.185 7.299-6.702 8.759-11.613h11.745c1.859 0 3.318.067 4.778.199-.132-1.128-.199-2.787-.199-4.844v-11.48c0-1.99.067-2.853.199-4.18h-10.152c.132 1.261.199 2.389.199 3.782v7.432h-5.176c.132-2.455.199-4.114.199-6.901v-6.768h10.02c3.119 0 4.711.066 6.636.265v-9.688c-1.925.265-3.252.331-6.636.331h-2.522c1.261-2.123 2.124-3.716 3.716-7.166l-10.683-1.991c-1.261 3.65-2.19 6.039-3.915 9.157h-4.048c-1.261-3.45-2.456-5.839-4.513-9.223l-10.152 2.588c1.858 2.521 2.986 4.379 3.981 6.635h-3.251c-2.655 0-3.584-.066-5.508-.331v2.853c-2.588-3.119-6.503-6.901-11.082-10.617l-7.565 7.166c5.442 4.646 8.096 7.366 12.276 12.808l6.371-6.437v3.915c1.991-.199 3.384-.265 6.503-.265h10.551zm77.24-17.054c.398 2.654.465 4.047.465 8.294v44.195c0 4.645-.133 6.304-.465 9.29h11.347c-.331-2.655-.398-4.513-.398-9.29V80.099c0-4.247.067-5.773.398-8.294h-11.347zm-32.648 30.391c.465-3.118.597-3.716.73-5.441h15.063c2.389 0 4.446.066 6.172.199-.199-1.858-.199-3.251-.199-5.574V78.573c0-2.389 0-3.716.199-5.64-1.726.199-3.982.265-7.167.265h-18.182c-2.986 0-5.574-.133-7.698-.398v10.02c2.456-.265 4.911-.398 7.565-.398h14.931v5.441h-15.594c-2.124 0-3.185-.066-4.645-.199-.199 7.299-1.394 16.324-3.119 23.69 1.526-.133 2.986-.199 4.91-.199h18.315c-.398 5.441-1.062 8.759-1.991 10.418-.597 1.062-1.659 1.393-4.313 1.393-3.451 0-7.498-.331-12.674-.929 1.46 4.048 1.99 6.304 2.521 10.419 3.982.199 6.835.265 9.556.265 6.835 0 9.954-.73 12.342-2.986 3.318-3.119 4.977-10.617 5.508-25.017.066-1.393.133-1.593.199-2.721-1.261.133-2.654.199-5.109.199h-17.32zm57.018-1.81c1.104-.048 1.44-.048 3.601-.096 6.098 0 8.307-.096 12.532-.528.577 1.296.961 2.16 1.105 2.544-3.89.433-8.499.673-13.109.673-2.641 0-3.553-.048-4.946-.192l.336 7.106c1.153-.144 1.297-.144 4.178-.24 6.914-.192 12.436-.528 16.518-1.056.96 1.536 1.68 2.689 2.209 3.409-2.161-.432-4.082-.576-6.627-.576-4.177 0-7.442.576-10.275 1.776-3.506 1.489-5.714 4.562-5.714 7.923 0 1.873.672 3.842 1.776 5.282 2.353 3.025 7.251 4.562 14.549 4.562 4.466 0 8.884-.48 13.445-1.489 2.353-.528 2.353-.528 3.361-.672l-1.104-8.115c-3.841 1.825-9.748 2.977-15.269 2.977-5.09 0-7.587-.864-7.587-2.641 0-2.017 2.929-3.121 8.259-3.121 4.177 0 7.25.624 10.083 2.113l7.059-3.65c-2.833-3.457-4.178-5.377-6.146-8.835.624-.144 2.833-.528 2.881-.528 4.801-1.008 4.801-1.008 5.906-1.152l-.72-7.059c-2.209.816-4.514 1.345-11.188 2.545-.192-.336-.721-1.584-1.105-2.497 4.802-.768 4.85-.816 7.635-1.392 2.641-.529 2.641-.529 3.553-.721l-.672-7.01c-2.785.912-8.403 2.065-13.013 2.689-.912-2.353-1.248-3.457-1.488-4.994l-8.403 1.008c.432.865 1.008 2.161 2.016 4.802-2.16.192-5.858.336-8.595.336-2.208 0-3.793-.048-5.474-.24l.433 7.059zm226.172-.578l-15.926 26.742c-.575.929-1.394 1.283-2.455 1.061l-17.652-3.782c-.575-.133-.862-.442-.862-.929 0-.221.088-.464.265-.73l14.599-18.845c.177-.222.265-.443.265-.664 0-.398-.309-.553-.929-.465l-28.6 3.318c-1.106.133-1.659-.354-1.659-1.46l-.265-13.736c0-1.106.531-1.703 1.592-1.791l40.744-3.65c1.106-.088 1.991.31 2.654 1.194l8.096 11.016c.663.885.708 1.792.133 2.721zM565.658 72.07l-9.622 54.281c-.177 1.061-.818 1.482-1.924 1.26l-17.85-3.981c-1.106-.265-1.482-.907-1.129-1.924l17.32-53.02c.354-1.018 1.062-1.394 2.123-1.128l9.755 2.455c1.106.265 1.548.951 1.327 2.057zm-77.771 19.509l-.531 32.117c0 1.106-.575 1.681-1.725 1.726l-40.213 2.189c-1.15.045-1.748-.486-1.792-1.592l-.597-12.874c-.044-1.061.464-1.636 1.526-1.725l27.738-1.858c1.106-.088 1.614-.686 1.526-1.791l-1.062-14.334c-.088-1.106-.686-1.637-1.792-1.592l-26.874.995c-1.106.044-1.682-.465-1.726-1.526l-.265-12.476c-.044-1.105.486-1.681 1.592-1.725l31.985-1.393c1.062-.045 1.703.486 1.924 1.592l2.323 12.21c.221 1.106.885 1.571 1.991 1.394l4.313-.73c.442-.089.829.011 1.161.298.332.288.498.653.498 1.095zm43.597 9.755c.133 1.106-.354 1.769-1.46 1.991l-10.949 2.256c-1.106.221-1.792-.199-2.057-1.261l-7.963-31.586c-.266-1.062.155-1.681 1.261-1.858l15.66-2.257c1.106-.177 1.725.288 1.858 1.394l3.65 31.321zM114.431 60.005c-.556.01-.79.226-1.251.76-.933 1.127-5.091 8.588-5.401 9.753-.194.622.544 1.516 3.886 4.585 3.08 2.838 4.064 3.611 4.791 3.609l.038-.001c.076-.003.149-.015.222-.033.331-.102.629-.153.795-.155h.023c.073.002.115.014.115.039 0 .077-.583 1.321-1.322 2.836-1.942 3.886-3.108 8.044-2.836 9.987.35 2.642 3.225 7.771 5.984 10.763l2.526 2.72 2.37-.001c2.489-.043 7.43-1.422 10.414-2.952 2.02-1.01 2.681-2.331 4.235-8.471 1.321-5.245.894-7.461-2.331-12.978l-1.205-2.06 1.321.233c.273.055.504.088.717.09h.042c.674-.009 1.184-.352 2.35-1.372.971-.855 2.836-2.37 4.158-3.38 2.215-1.71 2.37-1.904 2.098-3.07-.311-1.399-2.37-5.634-4.313-8.86-1.242-2.07-1.391-2.244-2.776-2.253h-.234c-2.026.026-5.21.878-8.958 2.37l-2.992 1.243-4.547-1.437c-2.486-.777-5.362-1.555-6.45-1.788-.628-.107-1.058-.172-1.383-.178l-.086.001zm18.162 26.654c.327.005.548.038.637.101 1.632 1.127 4.236 3.808 4.041 4.119-.136.228-.308.349-.583.356l-.034.001c-.43-.003-1.104-.269-2.258-.823-1.543-.753-2.321-.886-6.607-.893l-.426-.001c-5.207 0-5.246 0-7.266 1.244l-2.021 1.243-.583-.932c-.621-.933-.583-.972.894-1.749 1.921-.961 11.382-2.678 14.135-2.666h.071zm359.74-2.18c.265 1.062-.155 1.725-1.261 1.991l-6.901 1.592c-1.062.266-1.703-.155-1.925-1.261l-2.787-14.267c-.221-1.061.221-1.703 1.327-1.924l6.172-1.261c1.061-.221 1.725.199 1.99 1.261l3.385 13.869zm11.745-2.654c.265 1.106-.155 1.769-1.261 1.99l-6.636 1.46c-1.061.221-1.725-.221-1.99-1.327l-3.185-13.802c-.222-1.062.199-1.726 1.26-1.991l6.57-1.725c1.061-.266 1.725.132 1.991 1.194l3.251 14.201zm109.756-3.053c.088 1.106-.42 1.703-1.526 1.792l-36.763 2.986c-1.061.088-1.614-.42-1.659-1.526l-.464-12.675c0-.442.155-.807.464-1.095.31-.287.686-.431 1.129-.431l36.364 1.526c1.106.045 1.703.62 1.791 1.726l.664 7.697zm-484.833-1.73c-.287.011-.456.195-.744.587-.339.508-.788.77-1.243.786l-.045.001c-.471 0-.947-.262-1.316-.787-.291-.408-.605-.619-.972-.634l-.094.001c-.094.004-.192.021-.294.05-.466.117-1.166.35-1.593.466-.136.039-.253.059-.353.064l-.041.001c-.754.003-.359-.983.899-1.969.723-.531 1.05-.772 1.377-.767l.028.001c.261.016.529.188 1.005.494.552.361.872.525 1.233.523l.031-.001c.291-.009.612-.124 1.105-.328.547-.226.919-.342 1.313-.34h.038c.408.01.845.146 1.525.418 1.593.622 1.904 1.165 1.127 1.943-.126.126-.285.195-.493.203l-.049.001c-.3-.002-.699-.119-1.245-.36-.562-.221-.899-.345-1.148-.353h-.051zm22.376-11.109l-1.399.272c-.816.155-1.516.311-1.593.389-.078.077.194 1.515.544 3.147.466 2.176.583 3.769.388 5.712l-.233 2.642.971-.621c.816-.544.972-.933.933-2.177-.039-1.204.194-1.787 1.049-2.681l1.127-1.165-1.787-5.518zm-48.805 0l-1.788 5.518 1.049 1.087c.777.816 1.049 1.477 1.049 2.682 0 1.204.195 1.71.894 2.176.466.349.894.622.971.622l.002.001c.034-.008-.043-1.157-.157-2.605-.194-1.826-.039-3.497.428-5.634.349-1.671.621-3.109.544-3.187-.078-.077-.777-.233-1.594-.388l-1.398-.272zm35.139-3.808c.514.037 1.82 2.389 2.63 4.818l.661 1.904-3.226 3.303-1.826-.544c-1.073-.32-1.617-.485-1.826-.49h-.02c-.194.005-.039.179.253.529.233.311.35.738.194.972-.022.032-.061.05-.117.053h-.019c-.357-.003-1.299-.528-2.545-1.413-2.032-1.431-2.716-1.731-4.17-1.748l-.143-.001c-1.593 0-2.254.272-4.896 2.137-1.71 1.205-3.303 2.254-3.575 2.371-.158.06-.291.092-.4.097l-.032.001c-.549.002-.405-.706.432-1.575.659-.68.945-1 .702-1.023l-.022-.001c-.22-.005-.782.179-1.768.519-.663.237-1.063.377-1.38.39l-.036.001c-.443.005-.73-.251-1.382-.858-.622-.621-1.476-1.593-1.943-2.214-.777-1.089-.777-1.166-.116-3.109.388-1.127.971-2.409 1.321-2.875l.661-.855 5.323 2.875c3.867 2.082 4.979 2.662 5.898 2.662l.056-.001c.261-.006.51-.059.807-.135.777-.234 2.487-1.205 3.769-2.176 2.293-1.71 5.829-3.614 6.722-3.614h.013zm-20.723 5.051c-1.477 0-1.671.117-1.671.894 0 .505.194 1.088.466 1.36s.661.466.894.466h.004c.405-.005 3.07-.662 4.076-1.01 1.006-.348-1.959-1.66-3.748-1.709l-.021-.001zm18.846-.777c-.933 0-2.72.933-3.381 1.71-.466.544-.233.622 1.943.622h.037c3.117-.004 3.884-.432 2.877-1.516-.424-.462-1.077-.81-1.467-.815l-.009-.001zm78.42-1.174l.491.622c-.118-.239-.247-.482-.373-.716l-.118.094zm-.586-1.289l-.936-1.423h-.626l1.293 1.635.269-.212zM40.944 62.708l-.3.519c.903-.054 1.789-.247 2.626-.567l-2.326.048zm165.478-25.962l-1.58-.483-7.349 5.816.134 2.053c.615-.547 1.329-1.147 2.088-1.747 2.216-1.709 4.74-3.808 5.595-4.701.421-.394.775-.7 1.112-.938zM53.304 41.681l6.471-8.813c.163-.223.442-.327.711-.264 3.421.793 6.972-.523 9.049-3.352 1.776-2.419 2.171-5.593 1.106-8.355l-3.291 4.484c-.161.218-.433.322-.698.267l-4.325-.909c-.194-.04-.362-.164-.459-.337l-2.162-3.854c-.132-.236-.115-.527.045-.745l3.292-4.484c-2.954-.188-5.863 1.14-7.639 3.558-2.077 2.829-2.268 6.612-.487 9.638.14.238.125.536-.039.758l-6.249 8.512c.87.812 2.813 2.415 4.675 3.896zm146.257-2.992l1.508-1.193-6.532-8.252-1.507 1.193 6.531 8.252zm8.346-2.737l.087.107c.192-.038.397-.065.62-.085.087-.007-.155-.015-.707-.022zm-19.37-14.757l-1.963 1.553 1.872 5.471 3.434 1.375 2.101-1.662-.55-3.658-4.894-3.079z" fill="#000000"/></svg>